<?xml version="1.0" encoding="utf-8"?>
<!-- Generator: Adobe Illustrator 26.3.1, SVG Export Plug-In . SVG Version: 6.00 Build 0)  -->
<svg version="1.1" id="Layer_1" xmlns="http://www.w3.org/2000/svg" xmlns:xlink="http://www.w3.org/1999/xlink" x="0px" y="0px"
	 viewBox="0 0 275.4 120" style="enable-background:new 0 0 275.4 120;" xml:space="preserve">
<style type="text/css">
	.st0{fill:#A7A7A7;}
	.st1{fill:#010101;}
	.st2{fill:#020202;}
	.st3{fill:#040404;}
	.st4{fill:#A6A6A6;}
	.st5{fill:#030303;}
	.st6{fill:#070707;}
	.st7{fill:#050505;}
	.st8{fill:#656565;}
	.st9{fill:#969696;}
	.st10{fill:#5E5E5E;}
	.st11{fill:#6C6C6C;}
	.st12{fill:#6D6D6D;}
	.st13{fill:#9D9D9D;}
	.st14{fill:#676767;}
	.st15{fill:#8A8A8A;}
	.st16{fill:#939393;}
	.st17{fill:#7A7A7A;}
	.st18{fill:#8E8E8E;}
	.st19{fill:#767676;}
	.st20{fill:#6E6E6E;}
	.st21{fill:#808080;}
	.st22{fill:#7C7C7C;}
	.st23{fill:#757575;}
	.st24{fill:#868686;}
	.st25{fill:#777777;}
	.st26{fill:#747474;}
	.st27{fill:#7F7F7F;}
	.st28{fill:#848484;}
	.st29{fill:#898989;}
	.st30{fill:#787878;}
	.st31{fill:#858585;}
	.st32{fill:#7E7E7E;}
	.st33{fill:#8B8B8B;}
	.st34{fill:#6F6F6F;}
	.st35{fill:#717171;}
	.st36{fill:#707070;}
	.st37{fill:#838383;}
	.st38{fill:#818181;}
	.st39{fill:#797979;}
	.st40{fill:#888888;}
	.st41{fill:#8C8C8C;}
	.st42{fill:#828282;}
	.st43{fill:#585858;}
</style>
<g>
	<g>
		<path d="M90.55,74.12c1.37,1.11,2.72,2.24,4.11,3.31c2.65,2.03,5.33,4.01,7.98,6.03c4.59,3.5,9.17,7.01,13.76,10.52
			c1.83,1.4,3.67,2.78,5.51,4.18c-0.14,0.16-0.25,0.45-0.41,0.47c-1.49,0.18-2.98,0.39-4.48,0.44c-2.16,0.07-4.3-0.06-6.45-0.38
			c-1.52-0.23-3.05-0.37-4.59-0.48c-2.79-0.19-5.51-0.78-8.2-1.49c-2.37-0.63-4.73-1.28-7.1-1.94c-3.52-0.97-6.86-2.44-10.18-3.95
			c-7.39-3.36-14.08-7.77-20.07-13.25c-3.77-3.45-7.12-7.29-9.9-11.57c-1.7-2.62-3.1-5.43-4.52-8.21c-0.78-1.53-1.44-3.14-1.95-4.78
			c-0.66-2.1-1.16-4.26-1.64-6.41c-0.38-1.69-0.63-3.4-0.93-5.1c-0.08-0.48-0.13-0.96-0.17-1.24c0.28-0.38,0.5-0.67,0.71-0.96
			c0.37-0.1,0.75-0.21,1.12-0.3c0.92-0.24,1.84-0.48,2.76-0.72c0.34-0.15,0.68-0.29,1.02-0.44c0.15-0.01,0.3-0.03,0.46-0.04
			c0.34-0.15,0.68-0.3,1.02-0.45c0.37-0.1,0.75-0.22,1.12-0.31c0.92-0.24,1.84-0.48,2.76-0.72c0.34-0.15,0.68-0.29,1.02-0.44
			c0.15-0.01,0.3-0.03,0.46-0.04c0.34-0.15,0.68-0.29,1.02-0.45c0.37-0.11,0.75-0.22,1.12-0.32c0.92-0.24,1.84-0.48,2.76-0.71
			c0.34-0.15,0.68-0.29,1.02-0.44c0.15-0.01,0.3-0.03,0.46-0.04c0.34-0.15,0.68-0.29,1.02-0.45c0.15-0.01,0.3-0.03,0.46-0.04
			c1.08,0.1,1.34,0.3,1.37,1.39c0.07,2.4,0.45,4.74,1.01,7.08c0.63,2.62,1.43,5.17,2.42,7.68c1.95,4.95,4.8,9.32,8.33,13.25
			c1.36,1.51,2.98,2.78,4.45,4.2c2.55,2.45,5.61,4.14,8.62,5.91C88.67,73.42,89.64,73.72,90.55,74.12z"/>
		<path d="M60.65,96.17c-1.63,2.99-3.27,5.97-4.88,8.97c-1.52,2.84-3.02,5.7-4.53,8.54c-0.04,0.07-0.22,0.06-0.33,0.09
			c-0.21-0.23-0.4-0.48-0.63-0.67c-1.47-1.24-3.08-2.35-4.41-3.73c-2.23-2.31-4.41-4.69-6.36-7.23c-2.09-2.73-4.05-5.58-5.78-8.55
			c-1.64-2.83-3-5.84-4.31-8.85c-0.85-1.94-1.47-3.99-2.05-6.03c-0.49-1.7-0.77-3.45-1.13-5.19c-0.28-1.38-0.76-2.76-0.78-4.15
			c-0.03-2.75-0.55-5.49-0.21-8.25c0.26-2.13,0.09-4.28,0.5-6.43c0.45-2.33,0.85-4.67,1.51-6.96c1.01-3.52,2.25-6.93,3.92-10.19
			c0.43-0.84,0.72-1.76,1.06-2.65l0.01,0.01c0.68-0.27,0.96-0.8,0.94-1.51l0,0c0.17-0.32,0.35-0.63,0.52-0.95
			c0.15-0.18,0.3-0.35,0.45-0.53c0.18-0.31,0.35-0.63,0.53-0.94c2.22-3.3,4.5-6.54,7.05-9.59c0.68-0.81,0.92-0.83,1.95-0.45
			c1.23,0.46,2.49,0.81,3.74,1.2c1.13,0.35,2.27,0.67,3.41,1.01c0.34,0.15,0.68,0.3,1.01,0.45c0.15,0.01,0.3,0.03,0.46,0.04
			c0.34,0.15,0.68,0.3,1.02,0.45c0.15,0.01,0.3,0.02,0.46,0.04c0.34,0.15,0.68,0.3,1.02,0.45c0.15,0.01,0.3,0.03,0.46,0.04
			c0.34,0.15,0.68,0.29,1.02,0.45c0.15,0.01,0.3,0.03,0.46,0.04c0.34,0.15,0.68,0.29,1.02,0.45c0.15,0.01,0.3,0.03,0.46,0.04
			c0.34,0.15,0.68,0.3,1.01,0.45c0.3,0.02,0.61,0.04,0.92,0.05c-0.03,0.63,0.02,1.28-0.11,1.9c-0.22,1-0.56,1.97-0.85,2.95
			c-0.15,0.01-0.29,0.03-0.44,0.05c-0.34,0.15-0.69,0.29-1.02,0.44c-0.34,0.09-0.69,0.17-1.02,0.26c-0.95,0.25-1.9,0.51-2.86,0.76
			c-0.34,0.15-0.68,0.29-1.02,0.44c-0.8,0.18-1.6,0.36-2.4,0.54c-0.34,0.15-0.68,0.29-1.02,0.44c-0.8,0.18-1.6,0.36-2.4,0.54
			c-0.34,0.15-0.68,0.29-1.02,0.44c-0.15,0.01-0.3,0.03-0.46,0.05c-0.34,0.15-0.69,0.29-1.03,0.44c-0.8,0.18-1.6,0.36-2.4,0.54
			c-0.34,0.15-0.68,0.29-1.02,0.44c-0.64,0.19-1.27,0.38-1.91,0.57c-0.16,0.42-0.47,0.85-0.46,1.26c0.12,2.92,0.3,5.84,0.47,8.77
			c0,0.08,0.01,0.16,0.03,0.24c0.46,2.12,0.86,4.26,1.38,6.36c0.48,1.94,0.96,3.9,1.67,5.77c0.96,2.5,2.1,4.94,3.23,7.37
			c2.2,4.71,5.25,8.88,8.62,12.79c2.8,3.24,5.93,6.17,9.31,8.81c0.53,0.42,0.81,0.86,0.72,1.52c-0.81,1.46-1.62,2.92-2.42,4.38
			c-0.18,0.33-0.35,0.67-0.53,1.01C60.98,95.52,60.81,95.85,60.65,96.17z"/>
		<path class="st0" d="M69,48.48c-0.08,0.86,0.3,1.15,1.13,1.13c1.34-0.04,2.69,0,4.03-0.01c1.15-0.01,1.21-0.11,1.21-1.29
			c0-1.54,0.02-3.09,0.03-4.64c0.14,0.35,0.38,0.69,0.39,1.04c0.06,1.43,0,2.86,0.1,4.28c0.03,0.47,0.27,1.04,0.62,1.34
			c1.47,1.29,3.03,2.48,4.53,3.73c2.76,2.29,5.76,4.22,8.96,5.81c2.79,1.38,5.64,2.66,8.53,3.83c1.66,0.68,3.43,1.09,5.17,1.55
			c1.05,0.28,2.14,0.44,3.21,0.62c1.75,0.29,3.5,0.72,5.26,0.79c2.43,0.1,4.85,0.21,7.29-0.33c2.03-0.45,4-0.92,5.76-2.02
			c1.96-1.24,3.19-2.93,3.11-5.36c-0.03-0.81-0.07-1.63-0.1-2.45c0.16,0.11,0.37,0.19,0.47,0.34c0.49,0.75,0.92,1.52,1.41,2.26
			c1.09,1.64,1.47,3.48,1.08,5.36c-0.35,1.69-1.27,3.12-2.72,4.19c-1.63,1.2-3.51,1.82-5.4,2.37c-1.26,0.37-2.62,0.54-3.95,0.59
			c-2.36,0.09-4.74,0.11-7.1-0.03c-1.51-0.09-3.01-0.5-4.51-0.78c-0.99-0.19-1.99-0.35-2.96-0.61c-2.76-0.74-5.51-1.52-8.25-2.29
			c-0.62-0.18-1.26-0.62-1.83-0.54c-0.89,0.12-0.43,1.08-0.61,1.64c-0.55,1.71-1.38,3.18-2.79,4.32c-0.24,0.19-0.36,0.52-0.53,0.79
			c-0.92-0.4-1.89-0.7-2.74-1.21c-3.01-1.77-6.07-3.46-8.62-5.91c-1.47-1.41-3.09-2.69-4.45-4.2c-3.53-3.93-6.38-8.3-8.33-13.25
			c-0.99-2.51-1.78-5.05-2.42-7.68c-0.56-2.34-0.94-4.68-1.01-7.08c-0.03-1.09-0.28-1.29-1.37-1.39c0.32-0.47,0.45-0.88-0.06-1.35
			c-0.47-0.43-0.85-0.97-1.3-1.5c-0.36,0.14-0.73,0.28-1.09,0.41c0.29-0.99,0.63-1.96,0.85-2.95c0.13-0.61,0.08-1.26,0.11-1.9
			c0.35-0.67,0.7-1.34,1.04-1.99c-0.41-0.38-0.71-0.67-1.01-0.95c1.11-0.07,1.24-0.25,1.48-1.3c0.28-1.23,0.68-2.44,1.03-3.65
			c0.3,0.41,0.6,0.82,0.91,1.23c0.87,1.14,2.03,1.84,3.4,2.18c1.56,0.38,3.13,0.86,4.71,0.95c1.51,0.09,3.08-0.11,4.55-0.49
			c1.7-0.43,3.47-0.92,4.69-2.34c0.43-0.5,0.74-1.1,1.18-1.76c0.22,0.82,0.4,1.62,0.64,2.41c0.09,0.28,0.31,0.52,0.47,0.78
			c-0.01,1.76,0.11,1.92,1.49,2c-0.29,0.25-0.58,0.5-1.04,0.91c0.33,0.64,0.71,1.34,1.07,2.04c0.2,1.24,0.35,2.48,0.63,3.7
			c0.06,0.28,0.53,0.48,0.81,0.71c-0.17,0.78-0.79,0.51-1.14,0.34c-0.62-0.3-0.97-0.05-1.34,0.35c-0.43,0.47-0.87,0.92-1.3,1.37
			c0.13,0.3,0.25,0.55,0.35,0.79c-0.54,0.22-0.2,0.47-0.02,0.72c1.97,2.69,3.82,5.44,5.08,8.54c0.7,1.73,1.21,3.53,1.82,5.29
			c0.08,0.25,0.28,0.45,0.43,0.68c0.23,1.13,0.46,2.26,0.7,3.39c0.1,0.5,0.22,1.01,0.32,1.51c-0.52-0.27-1.07-0.5-1.56-0.82
			c-2.78-1.78-5.27-3.92-7.23-6.58c-1.56-2.12-3.05-4.29-4.53-6.47c-0.82-1.21-1.56-2.46-2.33-3.7c-0.25-0.17-0.5-0.47-0.76-0.48
			c-1.47-0.05-2.93-0.02-4.4-0.02c-0.68,0-0.76,0.48-0.76,1"/>
		<path class="st0" d="M64.09,89.81c0.09-0.67-0.19-1.11-0.72-1.52c-3.38-2.64-6.51-5.57-9.31-8.81c-3.38-3.91-6.43-8.07-8.62-12.79
			c-1.13-2.43-2.27-4.86-3.23-7.37c-0.71-1.86-1.19-3.82-1.67-5.77c-0.52-2.11-0.93-4.24-1.38-6.36c-0.01-0.08-0.03-0.16-0.03-0.24
			c-0.17-2.92-0.35-5.84-0.47-8.77c-0.01-0.42,0.29-0.84,0.46-1.26c0.4,0.5,0.9,0.94,1.17,1.5c0.39,0.81,1,0.96,1.76,0.91
			c-0.22,0.29-0.43,0.58-0.71,0.96c0.04,0.27,0.09,0.76,0.17,1.24c0.3,1.7,0.55,3.42,0.93,5.1c0.49,2.15,0.99,4.31,1.64,6.41
			c0.51,1.64,1.17,3.25,1.95,4.78c1.42,2.78,2.82,5.59,4.52,8.21c2.77,4.28,6.12,8.12,9.9,11.57c5.99,5.48,12.68,9.89,20.07,13.25
			c3.32,1.51,6.66,2.97,10.18,3.95c2.36,0.65,4.73,1.31,7.1,1.94c2.69,0.71,5.41,1.3,8.2,1.49c1.53,0.1,3.07,0.25,4.59,0.48
			c2.14,0.32,4.29,0.46,6.45,0.38c1.5-0.05,2.99-0.26,4.48-0.44c0.15-0.02,0.27-0.31,0.41-0.47c0.79,0.26,0.58,0.69,0.12,1.05
			c-1.91,1.5-3.84,2.96-5.76,4.44c-0.03,0.02-0.07,0.04-0.1,0.07c-1.9,2.09-4.22,1.26-6.47,0.94c-0.2-0.03-0.4-0.1-0.6-0.11
			c-2.22-0.18-4.45-0.29-6.66-0.55c-1.43-0.17-2.84-0.53-4.27-0.82c-0.95-0.19-1.89-0.43-2.84-0.57c-3.6-0.54-7.02-1.75-10.46-2.87
			c-4.77-1.55-9.19-3.81-13.59-6.13c-1.81-0.96-3.44-2.27-5.16-3.42C65.5,89.77,64.91,89.16,64.09,89.81z"/>
		<path class="st1" d="M127.65,55.59c0.18,0.29,0.39,0.61,0.59,0.94c0.03,0.81,0.07,1.63,0.1,2.45c0.08,2.44-1.15,4.13-3.11,5.36
			c-1.76,1.11-3.73,1.58-5.76,2.02c-2.44,0.53-4.86,0.44-7.29,0.33c-1.76-0.08-3.51-0.5-5.26-0.79c-1.07-0.18-2.16-0.34-3.21-0.62
			c-1.74-0.46-3.51-0.88-5.17-1.55c-2.89-1.18-5.74-2.45-8.53-3.83c-3.2-1.58-6.21-3.52-8.96-5.81c-1.51-1.26-4.53-3.73-4.53-3.73
			l-1.28-1.03v-2.94l0.17-2.69v-7.76c0.77,1.24,1.51,2.5,2.33,3.7c1.48,2.18,2.97,4.35,4.53,6.47c1.97,2.67,4.45,4.8,7.23,6.58
			c0.5,0.31,1.04,0.55,1.56,0.82c2.02,1.05,6.31,2.54,6.31,2.54l2.5,0.9l1.48,0.34l0.73,0.13l1.27,0.01c0,0,10.43,0.26,15.62-0.48"
			/>
		<path class="st0" d="M32.23,34.9c-0.35,0.88-0.63,1.8-1.06,2.65c-1.67,3.26-2.91,6.67-3.92,10.19c-0.66,2.29-1.06,4.62-1.51,6.96
			c-0.41,2.15-0.24,4.3-0.5,6.43c-0.34,2.77,0.18,5.5,0.21,8.25c0.02,1.39,0.5,2.77,0.78,4.15c0.36,1.73,0.64,3.49,1.13,5.19
			c0.58,2.04,1.21,4.09,2.05,6.03c1.31,3.01,2.67,6.02,4.31,8.85c1.73,2.97,3.69,5.83,5.78,8.55c1.95,2.54,4.14,4.92,6.36,7.23
			c1.33,1.38,2.93,2.49,4.41,3.73c0.24,0.2,0.42,0.45,0.63,0.67c-0.66-0.16-1.33-0.29-1.98-0.48c-2.08-0.6-4.16-1.23-6.24-1.84
			c-0.62-0.18-1.23-0.41-1.86-0.47c-1.73-0.18-2.47-1.6-3.45-2.69c-0.8-0.9-1.45-1.94-2.14-2.93c-1.42-2.06-2.92-4.08-4.19-6.23
			c-1.4-2.36-2.7-4.79-3.84-7.29c-0.94-2.04-1.64-4.2-2.35-6.34c-0.69-2.1-1.3-4.22-1.84-6.36c-0.3-1.21-0.45-2.46-0.58-3.7
			c-0.14-1.29-0.1-1.29-1.42-1.32c-0.2,0-0.4-0.04-0.61-0.06c0.61-0.24,1.22-0.47,1.89-0.74c-0.11-1.26-0.35-2.55-0.32-3.84
			c0.08-3.03,0.29-6.06,0.46-9.1c0.64-0.38,0.41-0.99,0.4-1.54c0.17-1.03,0.3-2.07,0.52-3.09c0.35-1.65,0.61-3.33,1.15-4.91
			c0.97-2.78,2.13-5.5,3.19-8.25c0.14-0.37,0.31-0.83-0.39-0.86c0.06-0.15,0.07-0.35,0.18-0.44c1.87-1.44,2.47-3.75,3.79-5.55
			C31.54,35.43,31.91,35.19,32.23,34.9z"/>
		<path d="M22.44,60.41c-0.16,3.03-0.37,6.06-0.46,9.1c-0.03,1.29,0.21,2.58,0.32,3.84c-0.67,0.26-1.28,0.5-1.89,0.74
			c-1.94,0.19-3.88,0.38-5.82,0.57c-0.54,0.05-1.18-0.33-1.55,0.39c-1.09,0-2.18,0-3.34,0c0-0.62,0-1.26,0-1.89
			c0.61-0.37,0.49-0.96,0.43-1.52c0.02-0.31,0.04-0.62,0.06-0.93c0.14-0.34,0.28-0.69,0.43-1.03c0.36-1.26,0.59-2.58,1.1-3.78
			c1.01-2.34,2.14-4.63,3.3-6.91c1.98-3.86,4.47-7.4,7.08-10.85c1.66-2.19,3.47-4.26,5.21-6.37c0.7,0.02,0.53,0.49,0.39,0.86
			c-1.06,2.75-2.23,5.47-3.19,8.25c-0.55,1.58-0.81,3.26-1.15,4.91c-0.22,1.02-0.35,2.06-0.52,3.09
			C22.17,59.24,22.45,59.86,22.44,60.41z"/>
		<path d="M210.16,85.36c-2.39,0.23-4.41-0.43-5.88-2.42c-0.24-0.28-0.47-0.56-0.7-0.84c-0.1,0.05-0.2,0.1-0.29,0.14
			c0,0.87,0,1.75,0,2.62c-0.76,0-1.53,0-2.36,0c0-9.98,0-19.87,0-29.84c0.8,0,1.56,0,2.45,0c0,4.4,0,8.74,0,13.41
			c1.19-0.84,2.11-1.57,3.1-2.18c1.13-0.7,2.42-0.51,3.68-0.46c0.34,0.14,0.69,0.29,1.03,0.43c1.8,0.49,2.9,1.85,3.81,3.3
			c0.56,0.9,0.75,2.04,1.1,3.07c0.03,0.7-0.34,1.48,0.42,2.01c0,0.63,0,1.26,0,1.9c-0.76,0.54-0.39,1.32-0.42,2.01
			c-0.45,2.77-2,4.79-4.32,6.27c-0.16,0.1-0.39,0.08-0.59,0.12C210.84,85.07,210.5,85.22,210.16,85.36z M213.56,77.5
			c0.01-0.65,0.02-1.3,0.05-1.95c0.09-1.82-0.41-3.45-1.47-4.94c-1.19-1.68-3.42-2.42-5.35-1.49c-1.18,0.57-1.87,1.49-2.5,2.54
			c-0.16,0.33-0.31,0.67-0.47,1c-0.15,1.09-0.4,2.19-0.41,3.28c-0.01,0.85,0.26,1.7,0.42,2.55c0.15,0.34,0.3,0.67,0.46,1.01
			c0.61,1.03,1.3,1.97,2.46,2.45c1.01,0.92,2.17,0.48,3.29,0.33c0.07-0.01,0.11-0.2,0.17-0.31c1.64-0.58,2.45-1.87,2.93-3.44
			C213.28,78.19,213.42,77.85,213.56,77.5z"/>
		<path d="M90.04,48.59c-0.15-0.23-0.34-0.43-0.43-0.68c-0.61-1.76-1.12-3.57-1.82-5.29c-1.26-3.09-3.12-5.85-5.08-8.54
			c-0.18-0.24-0.52-0.49,0.02-0.72c0.99,0.28,1.97,0.57,2.95,0.84c0.31,0.09,0.62,0.14,0.94,0.21c0.34,0.15,0.68,0.29,1.02,0.44
			c0.8,0.18,1.6,0.36,2.41,0.54c0.34,0.15,0.68,0.3,1.01,0.45c0.15,0.01,0.3,0.03,0.46,0.04c0.34,0.15,0.68,0.29,1.02,0.44
			c0.8,0.18,1.6,0.37,2.4,0.55c0.34,0.15,0.68,0.29,1.02,0.44c0.15,0.01,0.3,0.03,0.46,0.04c0.34,0.15,0.68,0.29,1.02,0.44
			c0.8,0.18,1.6,0.37,2.4,0.55c0.34,0.15,0.69,0.29,1.03,0.44c0.15,0.01,0.3,0.03,0.46,0.05c0.34,0.15,0.68,0.29,1.02,0.44
			c0.3,0.02,0.6,0.05,0.9,0.07c0.02,0.08,0.03,0.21,0.07,0.23c1.49,0.57,2.98,1.13,4.46,1.71c0.78,0.3,1.73,0.21,2.34,0.93
			c-1.77,0.19-5.31,0.57-5.31,0.57l-1.05,0.41l-0.93,0.06c0,0-0.69,0.28-1.03,0.43c-0.8,0.18-2.41,0.54-2.41,0.54l-1.01,0.45
			c0,0-0.3,0.03-0.45,0.04c-0.34,0.15-0.68,0.3-1.02,0.45C94.47,45.99,92.11,47,90.04,48.59z"/>
		<path class="st1" d="M246.97,78.51c0-1.95,0-3.89,0-5.84c0.14-0.34,0.29-0.69,0.43-1.03c0.01-0.15,0.03-0.3,0.05-0.46
			c0.16-0.33,0.31-0.67,0.47-1c1.55-3.36,4.2-4.75,7.83-4.38c0.34,0.15,0.68,0.3,1.02,0.45c1.63,0.67,2.76,1.82,3.42,3.45
			c0.16,0.33,0.31,0.67,0.47,1c0.01,0.15,0.03,0.3,0.05,0.45c0.14,0.34,0.28,0.69,0.43,1.03c0,1.42,0,2.83,0,4.41
			c-3.76,0-7.5,0-11.24,0c-0.69,0.38-0.7,0.7-0.03,1.47c0.01,0.15,0.02,0.3,0.04,0.46c0.16,0.33,0.31,0.67,0.47,1
			c0.62,1.01,1.18,2.08,2.44,2.46c0.74,0.72,2.62,0.71,3.45,0c1.22-0.31,1.92-1.26,2.71-2.26c0.55,0.47,1.13,0.86,1.56,1.37
			c0.18,0.21,0.22,0.79,0.05,1c-1,1.3-2.03,2.58-3.8,2.87c-0.35,0.14-0.69,0.28-1.04,0.42c-2.01,0.17-3.89-0.05-5.52-1.41
			c-1.42-1.19-2.42-2.61-2.83-4.42C247.25,79.19,247.11,78.85,246.97,78.51z M249.91,72.17c-0.03,0.47-0.05,0.94-0.08,1.4
			c3,0,5.86,0,8.73,0c-0.13-0.67-0.22-1.23-0.35-1.76c-0.38-1.49-1.9-3.05-3.59-3.11c-1.98-0.07-3.29,0.83-4.24,2.47
			C250.22,71.5,250.06,71.84,249.91,72.17z"/>
		<path class="st1" d="M160.24,84.84c-1.12,0-2,0-2.99,0c0-8.29,0-16.51,0-24.88c-2.48,0-4.86,0-7.3,0c0-1.06,0-1.98,0-2.99
			c5.84,0,11.64,0,17.52,0c0,0.96,0,1.88,0,2.9c-2.37,0-4.73,0-7.22,0C160.24,68.23,160.24,76.49,160.24,84.84z"/>
		<path d="M242.1,84.84c-0.86,0-1.58,0-2.51,0c0-0.41,0-0.83,0-1.26c0-3.71-0.01-7.43-0.01-11.14c0-1.23-0.48-2.31-1.34-3.1
			c-1.11-1-3.02-0.84-4.09,0.09c-1.08,0.95-1.67,2.12-1.94,3.56c-0.66,3.44-0.28,6.89-0.39,10.33c-0.01,0.48,0,0.96,0,1.51
			c-0.87,0-1.63,0-2.46,0c0-6.17,0-12.31,0-18.52c0.77,0,1.52,0,2.34,0c0.04,0.76,0.08,1.48,0.11,2.19
			c0.85-1.18,1.89-1.98,3.21-2.47c2.18-0.8,4.87-0.01,6.06,2.17c0.69,1.26,1.03,2.57,1.02,4.02
			C242.08,76.39,242.1,80.54,242.1,84.84z"/>
		<path d="M174.36,84.93c-1.63-0.57-2.42-1.82-2.97-3.4c-0.53-1.51-0.45-3.03-0.46-4.56c-0.01-3.14,0-6.28,0-9.41
			c0-0.4,0-0.79,0-1.25c0.88,0,1.63,0,2.5,0c0,0.5,0,0.94,0,1.37c0,3.51-0.07,7.01,0.04,10.51c0.03,1.02,0.44,2.1,0.93,3.01
			c0.73,1.33,2.4,1.57,3.89,0.86c0.95-0.45,1.58-1.13,1.98-2.07c0.15-0.34,0.3-0.67,0.46-1.01c0.9-3.69,0.34-7.44,0.49-11.16
			c0.02-0.48,0-0.96,0-1.52c0.85,0,1.6,0,2.45,0c0,6.16,0,12.29,0,18.54c-0.64,0-1.27,0-1.91,0c0-0.88,0-1.75,0-2.63
			c-0.12-0.04-0.24-0.08-0.36-0.11c-0.21,0.27-0.42,0.55-0.63,0.83c-0.92,1.52-2.29,2.3-4.05,2.43c-0.44,0.03-0.89-0.01-1.34-0.02
			C175.05,85.22,174.7,85.07,174.36,84.93z"/>
		<path class="st2" d="M62.65,18.21c-0.35,1.22-0.75,2.42-1.03,3.65c-0.24,1.04-0.37,1.23-1.48,1.3c-0.15-0.02-0.3-0.04-0.46-0.05
			c-0.34-0.15-0.68-0.3-1.01-0.45c-0.95-0.26-1.9-0.52-2.85-0.78c-0.34-0.09-0.69-0.17-1.03-0.25c-0.34-0.15-0.68-0.29-1.02-0.44
			c-0.15-0.01-0.3-0.03-0.46-0.04c-0.34-0.15-0.68-0.29-1.02-0.45c-0.5-0.16-1-0.33-1.5-0.49c0-0.1,0.01-0.21,0.02-0.31
			c5.78-4.2,12.14-7.16,19.13-9.11c0.02,0.51,0.05,0.83,0.06,1.15c0.01,0.4,0,0.8,0,1.3c-0.39,0.04-0.7,0.08-1.01,0.11
			c-0.55-0.02-1.15-0.18-1.5,0.46C65.18,14.49,63.13,15.49,62.65,18.21z"/>
		<path d="M191.51,67.76c0.05,0.27,0.11,0.53,0.18,0.86c1.61-2.37,3.26-3.15,5.73-2.69c0,0.94,0.02,1.91-0.02,2.87
			c0,0.13-0.29,0.25-0.44,0.38c-0.76-0.68-1.23-0.68-2.01-0.01c-1.47,0.26-2.59,1.79-2.93,3.47c-0.71,3.51-0.27,7.03-0.4,10.55
			c-0.02,0.52,0,1.04,0,1.64c-0.86,0-1.61,0-2.46,0c0-6.14,0-12.28,0-18.54c0.62,0,1.25,0,1.89,0
			C191.18,66.78,190.75,67.46,191.51,67.76z"/>
		<path d="M223.84,84.84c-0.81,0-1.57,0-2.39,0c0-6.2,0-12.33,0-18.53c0.82,0,1.57,0,2.39,0C223.84,72.48,223.84,78.59,223.84,84.84
			z"/>
		<path class="st3" d="M104.76,36.88c-0.15-0.01-0.3-0.03-0.46-0.04c-0.34-0.15-0.68-0.3-1.02-0.45c-0.15-0.01-0.3-0.03-0.46-0.04
			c-0.34-0.15-0.68-0.3-1.01-0.45c-0.95-0.26-1.9-0.51-2.84-0.77c-0.34-0.09-0.69-0.18-1.03-0.26c-0.34-0.15-0.68-0.29-1.02-0.44
			c-0.74-0.22-1.49-0.43-2.23-0.65c0-0.07,0.01-0.14,0.01-0.21c0.18-0.05,0.35-0.14,0.52-0.13c1.99,0,3.97-0.02,5.96,0.06
			c1.03,0.04,2.06,0.29,3.09,0.44c0.38,0.63,0.97,0.47,1.53,0.42c0.47,0.02,0.93,0.05,1.4,0.07c0.37,0.6,0.94,0.5,1.51,0.45
			c0.15,0.01,0.3,0.02,0.46,0.04c0.34,0.15,0.68,0.29,1.02,0.44c0.15,0.01,0.3,0.03,0.46,0.04c0.34,0.15,0.68,0.3,1.01,0.45
			c0.97,0.5,1.93,1.01,2.89,1.51c0.05,1.36,0,1.51-1.27,1.39c-1.43-0.14-2.83-0.5-4.24-0.76c-1.09-0.21-2.19-0.43-3.28-0.65l0,0
			C105.43,37.19,105.09,37.03,104.76,36.88z"/>
		<path class="st2" d="M77.36,18.25c-0.69,1.36-2.02,1.71-3.33,1.9c-1.12,0.16-2.28,0.12-3.41,0c-1.17-0.12-2.3-0.48-3.1-1.46
			c-0.01-0.66-0.01-1.31-0.02-1.97c0.65-0.46,1.25-1.17,1.97-1.34c2.63-0.62,5.25-0.63,7.62,0.97c0.11,0.08,0.16,0.26,0.24,0.39
			C77.34,17.25,77.35,17.75,77.36,18.25z"/>
		<path class="st4" d="M105.76,37.34c1.09,0.22,2.19,0.44,3.28,0.65c1.41,0.27,2.81,0.63,4.24,0.76c1.27,0.12,1.32-0.02,1.27-1.39
			c0.63,1.09,1.34,2.15,1.87,3.29c0.29,0.62-0.61,1.57-1.41,1.58c-1.63,0.02-3.26-0.01-4.88-0.02c-0.62-0.73-1.56-0.63-2.34-0.93
			c-1.49-0.58-2.98-1.13-4.46-1.71c-0.05-0.02-0.05-0.15-0.07-0.23C104.55,39.26,105.1,38.23,105.76,37.34z"/>
		<path class="st1" d="M150.85,46.16c1.26-2.37,3.31-2.88,6.36-1.48c0-1.78,0-3.51,0-5.3c0.54,0,0.96,0,1.44,0c0,4.06,0,8.07,0,12.3
			c-0.64-0.15-1.2-0.28-1.93-0.46c-2.51,1.6-4.9,0.49-5.87-1.6c0-0.54,0.19-1.15-0.46-1.5c0-0.15,0-0.3,0-0.46
			C151.03,47.31,150.84,46.7,150.85,46.16z M157.23,47.9c0-1.67-1.02-2.72-2.64-2.71c-1.52,0.01-2.72,1.19-2.73,2.68
			c-0.01,1.51,1.17,2.7,2.69,2.71C156.21,50.59,157.23,49.57,157.23,47.9z"/>
		<path class="st3" d="M86.16,30.52c-0.28-0.24-0.75-0.43-0.81-0.71c-0.27-1.22-0.43-2.47-0.63-3.7c0.3-0.02,0.6-0.04,0.91-0.07
			c0.34-0.15,0.68-0.29,1.02-0.44c0.15-0.01,0.3-0.03,0.46-0.05c0.34-0.15,0.68-0.29,1.02-0.44c0.92-0.24,1.83-0.48,2.75-0.73
			c0.38-0.1,0.75-0.21,1.13-0.31c0.34-0.15,0.68-0.29,1.02-0.45c0.15-0.01,0.3-0.03,0.46-0.04c0.34-0.15,0.68-0.3,1.02-0.45
			c0.95-0.26,1.9-0.53,2.85-0.78c0.34-0.09,0.69-0.16,1.04-0.24c0.16,0.15,0.31,0.31,0.47,0.46c-1.87,1-3.79,1.9-5.59,3.01
			c-2.19,1.35-4.27,2.87-6.39,4.32C86.63,30.1,86.41,30.32,86.16,30.52z"/>
		<path class="st5" d="M168.33,48.13c-2.01,0-4.02,0-6.05,0c0.25,2.27,2.49,3.07,3.86,2.03c0.63-0.48,1.27-0.97,1.79,0.14
			c-0.73,1.54-3.37,2.05-5.15,1.2c-1.34-0.64-2.43-3.13-1.97-4.56c0.65-2.05,2.46-3.39,4.26-3.15
			C167.15,44.09,168.34,45.6,168.33,48.13z M162.28,47.12c1.39,0,2.75,0.05,4.11-0.02c0.63-0.03,0.64-0.38,0.28-0.91
			c-0.64-0.95-1.52-1.11-2.51-0.98C163.16,45.34,162.52,45.91,162.28,47.12z"/>
		<path class="st6" d="M84.69,23.17c-1.38-0.08-1.5-0.25-1.49-2c0.16-0.01,0.31-0.02,0.47-0.03c0.54-0.04,1.18,0.3,1.54-0.41
			c0.78-0.03,1.57-0.06,2.35-0.1c0.56,0.05,1.15,0.21,1.53-0.41c1.61-0.19,3.23-0.38,4.84-0.57c0.17,0.18,0.35,0.35,0.52,0.52
			c-0.64,0.18-1.28,0.35-1.93,0.52c-0.34,0.15-0.68,0.29-1.02,0.44c-0.15,0.01-0.3,0.03-0.46,0.04c-0.34,0.15-0.68,0.3-1.01,0.45
			c-0.92,0.24-1.83,0.48-2.75,0.72c-0.38,0.1-0.75,0.21-1.13,0.31c-0.34,0.15-0.69,0.29-1.02,0.44C85,23.13,84.85,23.15,84.69,23.17
			z"/>
		<path class="st7" d="M222.55,61.39c-1.23,0.21-1.79-0.81-1.97-2.19c-0.15-1.24,0.8-2.28,1.87-2.29c1.09-0.01,1.93,0.97,1.94,2.27
			C224.4,60.41,223.59,61.38,222.55,61.39z"/>
		<path class="st8" d="M180.78,82.95c0.21-0.27,0.42-0.55,0.63-0.83c0.12,0.04,0.24,0.08,0.36,0.11c0,0.88,0,1.75,0,2.63
			c-0.69,0.01-0.44-0.52-0.51-0.87C181.16,83.61,181.5,83.04,180.78,82.95z"/>
		<path class="st9" d="M33.18,33.41c0.01,0.71-0.26,1.23-0.94,1.51C32.13,34.15,32.56,33.72,33.18,33.41z"/>
		<path class="st10" d="M67.5,16.73c0.01,0.66,0.01,1.31,0.02,1.97C66.81,17.95,66.81,17.33,67.5,16.73z"/>
		<path class="st11" d="M89.11,20.22c-0.38,0.62-0.98,0.47-1.53,0.41C87.92,19.9,88.58,20.28,89.11,20.22z"/>
		<path class="st11" d="M249.87,78.04c-0.67-0.76-0.66-1.09,0.03-1.47C249.89,77.07,249.88,77.56,249.87,78.04z"/>
		<path class="st12" d="M10.12,71.63c0.05,0.56,0.18,1.15-0.43,1.52C9.7,72.6,9.45,71.99,10.12,71.63z"/>
		<path class="st13" d="M85.22,20.73c-0.36,0.71-1,0.37-1.54,0.41C84.05,20.49,84.65,20.69,85.22,20.73z"/>
		<path class="st14" d="M191.51,67.76c-0.76-0.3-0.33-0.98-0.47-1.47C192.01,66.52,191.35,67.27,191.51,67.76z"/>
		<path class="st15" d="M67.5,13.8c0.35-0.63,0.95-0.48,1.5-0.46C68.5,13.49,68,13.65,67.5,13.8z"/>
		<path class="st16" d="M77.36,18.25c-0.01-0.5-0.03-1-0.04-1.5C77.89,17.24,78.21,17.73,77.36,18.25z"/>
		<path class="st15" d="M95.96,37.32c-0.34-0.15-0.68-0.29-1.02-0.44C95.28,37.03,95.63,37.18,95.96,37.32z"/>
		<path class="st4" d="M104.76,36.88c0.33,0.15,0.67,0.31,1,0.46C105.43,37.19,105.09,37.03,104.76,36.88z"/>
		<path class="st17" d="M97.45,37.81c-0.34-0.15-0.68-0.29-1.02-0.44C96.76,37.52,97.1,37.66,97.45,37.81z"/>
		<path class="st15" d="M103.28,36.39c0.34,0.15,0.68,0.3,1.02,0.45C103.97,36.68,103.63,36.54,103.28,36.39z"/>
		<path class="st18" d="M100.87,38.79c-0.34-0.15-0.69-0.29-1.03-0.44C100.18,38.5,100.52,38.65,100.87,38.79z"/>
		<path class="st9" d="M33.7,32.45c-0.17,0.32-0.35,0.63-0.52,0.95C33.36,33.08,33.53,32.77,33.7,32.45z"/>
		<path class="st19" d="M57.74,25.55c-0.34-0.15-0.68-0.29-1.02-0.45C57.05,25.26,57.39,25.41,57.74,25.55z"/>
		<path class="st17" d="M56.26,25.06c-0.34-0.15-0.68-0.29-1.02-0.45C55.58,24.77,55.92,24.92,56.26,25.06z"/>
		<path class="st20" d="M103.77,43.19c0.35-0.14,0.7-0.27,1.05-0.41C104.47,42.92,104.12,43.06,103.77,43.19z"/>
		<path class="st21" d="M101.8,43.68c0.34-0.14,0.69-0.28,1.03-0.43C102.49,43.4,102.15,43.54,101.8,43.68z"/>
		<path class="st22" d="M98.38,44.68c0.34-0.15,0.68-0.3,1.01-0.45C99.06,44.37,98.72,44.53,98.38,44.68z"/>
		<path class="st23" d="M96.91,45.16c0.34-0.15,0.68-0.3,1.02-0.45C97.59,44.87,97.25,45.02,96.91,45.16z"/>
		<path class="st24" d="M54.78,24.58c-0.34-0.15-0.68-0.3-1.02-0.45C54.11,24.28,54.45,24.43,54.78,24.58z"/>
		<path class="st25" d="M93.03,23.64c-0.34,0.15-0.68,0.29-1.02,0.45C92.35,23.94,92.69,23.79,93.03,23.64z"/>
		<path class="st26" d="M101.81,35.89c0.34,0.15,0.68,0.3,1.01,0.45C102.49,36.19,102.15,36.05,101.81,35.89z"/>
		<path class="st25" d="M92.55,36.33c-0.34-0.15-0.68-0.29-1.02-0.44C91.86,36.04,92.2,36.19,92.55,36.33z"/>
		<path class="st27" d="M53.31,24.09c-0.34-0.15-0.68-0.3-1.02-0.45C52.64,23.79,52.98,23.94,53.31,24.09z"/>
		<path class="st28" d="M94.5,23.15c-0.34,0.15-0.68,0.3-1.02,0.45C93.82,23.45,94.16,23.3,94.5,23.15z"/>
		<path class="st19" d="M111.65,35.85c-0.34-0.15-0.68-0.3-1.01-0.45C110.98,35.56,111.32,35.71,111.65,35.85z"/>
		<path class="st29" d="M51.84,23.6c-0.34-0.15-0.68-0.3-1.01-0.45C51.17,23.3,51.5,23.45,51.84,23.6z"/>
		<path class="st30" d="M85.15,23.11c0.34-0.15,0.69-0.29,1.02-0.44C85.84,22.82,85.49,22.97,85.15,23.11z"/>
		<path class="st28" d="M91.06,35.85c-0.34-0.15-0.68-0.3-1.01-0.45C90.39,35.56,90.72,35.7,91.06,35.85z"/>
		<path class="st19" d="M58.67,22.66c0.34,0.15,0.68,0.3,1.01,0.45C59.35,22.96,59.01,22.81,58.67,22.66z"/>
		<path class="st31" d="M88.13,25.12c-0.34,0.15-0.68,0.29-1.02,0.44C87.45,25.41,87.79,25.26,88.13,25.12z"/>
		<path class="st32" d="M211.18,66.24c-0.34-0.14-0.69-0.29-1.03-0.43C210.5,65.95,210.84,66.09,211.18,66.24z"/>
		<path class="st15" d="M90.05,21.64c0.34-0.15,0.68-0.3,1.01-0.45C90.72,21.34,90.39,21.49,90.05,21.64z"/>
		<path class="st33" d="M256.77,66.24c-0.34-0.15-0.68-0.3-1.02-0.45C256.09,65.95,256.43,66.1,256.77,66.24z"/>
		<path class="st31" d="M53.77,21.19c0.34,0.15,0.68,0.29,1.02,0.44C54.46,21.48,54.11,21.33,53.77,21.19z"/>
		<path class="st25" d="M91.52,21.14c0.34-0.15,0.68-0.29,1.02-0.44C92.2,20.85,91.86,20.99,91.52,21.14z"/>
		<path class="st27" d="M110.19,35.36c-0.34-0.15-0.68-0.29-1.02-0.44C109.51,35.06,109.85,35.21,110.19,35.36z"/>
		<path class="st30" d="M52.3,20.7c0.34,0.15,0.68,0.29,1.02,0.45C52.98,20.99,52.64,20.85,52.3,20.7z"/>
		<path class="st23" d="M59.2,26.05c-0.34-0.15-0.68-0.3-1.01-0.45C58.52,25.75,58.86,25.9,59.2,26.05z"/>
		<path class="st34" d="M10.62,69.67c-0.14,0.34-0.28,0.69-0.43,1.03C10.33,70.36,10.48,70.01,10.62,69.67z"/>
		<path class="st35" d="M260.66,70.69c-0.16-0.33-0.31-0.67-0.47-1C260.35,70.02,260.51,70.36,260.66,70.69z"/>
		<path class="st36" d="M247.92,70.18c-0.16,0.33-0.31,0.67-0.47,1C247.6,70.85,247.76,70.51,247.92,70.18z"/>
		<path class="st32" d="M261.14,72.17c-0.14-0.34-0.28-0.69-0.43-1.03C260.85,71.49,261,71.83,261.14,72.17z"/>
		<path class="st37" d="M96.92,34.42c0.34,0.15,0.68,0.29,1.02,0.44C97.6,34.71,97.25,34.57,96.92,34.42z"/>
		<path class="st28" d="M247.4,71.63c-0.14,0.34-0.29,0.69-0.43,1.03C247.11,72.32,247.25,71.98,247.4,71.63z"/>
		<path class="st20" d="M87.65,34.86c-0.34-0.15-0.68-0.29-1.02-0.44C86.96,34.57,87.3,34.72,87.65,34.86z"/>
		<path class="st26" d="M86.66,25.6c-0.34,0.15-0.68,0.29-1.02,0.44C85.97,25.9,86.31,25.75,86.66,25.6z"/>
		<path class="st28" d="M246.97,78.51c0.14,0.34,0.29,0.69,0.43,1.03C247.25,79.19,247.11,78.85,246.97,78.51z"/>
		<path class="st36" d="M250.37,79.51c-0.16-0.33-0.31-0.67-0.47-1C250.06,78.84,250.22,79.17,250.37,79.51z"/>
		<path class="st38" d="M180.74,79c-0.15,0.34-0.3,0.67-0.46,1.01C180.43,79.67,180.59,79.33,180.74,79z"/>
		<path class="st30" d="M34.68,30.98c-0.18,0.31-0.35,0.63-0.53,0.94C34.33,31.61,34.5,31.29,34.68,30.98z"/>
		<path class="st26" d="M174.36,84.93c0.34,0.15,0.68,0.29,1.02,0.44C175.05,85.22,174.7,85.07,174.36,84.93z"/>
		<path class="st26" d="M210.16,85.36c0.34-0.14,0.69-0.29,1.03-0.43C210.84,85.07,210.5,85.22,210.16,85.36z"/>
		<path class="st32" d="M255.75,85.36c0.35-0.14,0.69-0.28,1.04-0.42C256.44,85.08,256.09,85.23,255.75,85.36z"/>
		<path class="st32" d="M60.65,96.17c0.17-0.32,0.33-0.65,0.5-0.98C60.98,95.52,60.81,95.85,60.65,96.17z"/>
		<path class="st39" d="M102.35,39.28c-0.34-0.15-0.68-0.29-1.02-0.44C101.67,38.99,102.01,39.13,102.35,39.28z"/>
		<path class="st40" d="M47.4,37.82c0.34-0.15,0.68-0.3,1.02-0.45C48.08,37.52,47.74,37.66,47.4,37.82z"/>
		<path class="st25" d="M45.92,38.3c0.34-0.15,0.68-0.29,1.02-0.44C46.6,38.01,46.26,38.15,45.92,38.3z"/>
		<path class="st19" d="M52.29,36.34c0.34-0.15,0.68-0.29,1.02-0.44C52.98,36.05,52.64,36.19,52.29,36.34z"/>
		<path class="st24" d="M53.77,35.85c0.34-0.15,0.68-0.29,1.02-0.45C54.45,35.56,54.11,35.7,53.77,35.85z"/>
		<path class="st30" d="M58.67,34.38c0.34-0.15,0.68-0.29,1.02-0.44C59.35,34.08,59.01,34.23,58.67,34.38z"/>
		<path class="st41" d="M60.15,33.89c0.34-0.15,0.68-0.29,1.02-0.45C60.82,33.59,60.49,33.74,60.15,33.89z"/>
		<path class="st30" d="M42.04,35.9c-0.34,0.15-0.68,0.29-1.02,0.44C41.36,36.19,41.7,36.05,42.04,35.9z"/>
		<path class="st40" d="M45.47,34.92c-0.34,0.15-0.69,0.29-1.03,0.44C44.79,35.21,45.13,35.06,45.47,34.92z"/>
		<path class="st34" d="M46.96,34.43c-0.34,0.15-0.68,0.29-1.02,0.44C46.27,34.73,46.61,34.58,46.96,34.43z"/>
		<path class="st21" d="M58.72,31c-0.34,0.15-0.69,0.29-1.02,0.44C58.03,31.29,58.37,31.14,58.72,31z"/>
		<path class="st42" d="M50.38,33.45c-0.34,0.15-0.68,0.29-1.02,0.44C49.7,33.74,50.04,33.59,50.38,33.45z"/>
		<path class="st31" d="M53.8,32.46c-0.34,0.15-0.68,0.29-1.02,0.44C53.12,32.76,53.47,32.61,53.8,32.46z"/>
		<path class="st43" d="M22.44,60.41c0.01-0.54-0.27-1.17,0.4-1.54C22.86,59.42,23.08,60.03,22.44,60.41z"/>
		<path class="st25" d="M204.29,71.66c-0.16,0.33-0.31,0.67-0.47,1C203.98,72.33,204.14,71.99,204.29,71.66z"/>
		<path class="st23" d="M213.14,78.54c0.14-0.35,0.28-0.69,0.42-1.04C213.42,77.85,213.28,78.19,213.14,78.54z"/>
		<path class="st36" d="M203.83,78.5c0.15,0.34,0.3,0.67,0.46,1.01C204.14,79.17,203.99,78.83,203.83,78.5z"/>
		<path class="st25" d="M250.38,71.17c-0.16,0.33-0.31,0.67-0.47,1C250.06,71.84,250.22,71.5,250.38,71.17z"/>
	</g>
</g>
</svg>
