<svg id="Layer_1" data-name="Layer 1" xmlns="http://www.w3.org/2000/svg" viewBox="0 0 251.49 103.05"><defs><style>.cls-1{fill:#a7a7a7;}.cls-2{fill:#010101;}.cls-3{fill:#fff;}.cls-4{fill:#020202;}.cls-5{fill:#040404;}.cls-6{fill:#a6a6a6;}.cls-7{fill:#070707;}.cls-8{fill:#969696;}.cls-9{fill:#5e5e5e;}.cls-10{fill:#6c6c6c;}.cls-11{fill:#6d6d6d;}.cls-12{fill:#9d9d9d;}.cls-13{fill:#8a8a8a;}.cls-14{fill:#939393;}.cls-15{fill:#7a7a7a;}.cls-16{fill:#8e8e8e;}.cls-17{fill:#767676;}.cls-18{fill:#6e6e6e;}.cls-19{fill:gray;}.cls-20{fill:#7c7c7c;}.cls-21{fill:#757575;}.cls-22{fill:#868686;}.cls-23{fill:#777;}.cls-24{fill:#747474;}.cls-25{fill:#7f7f7f;}.cls-26{fill:#848484;}.cls-27{fill:#898989;}.cls-28{fill:#787878;}.cls-29{fill:#858585;}.cls-30{fill:#6f6f6f;}.cls-31{fill:#838383;}.cls-32{fill:#7e7e7e;}.cls-33{fill:#797979;}.cls-34{fill:#888;}.cls-35{fill:#8c8c8c;}.cls-36{fill:#828282;}.cls-37{fill:#585858;}.cls-38{fill:#b8babc;}.cls-39{fill:#949698;}</style></defs><path d="M80.9,63.39c1.37,1.11,2.72,2.24,4.11,3.31,2.65,2,5.33,4,8,6l13.76,10.52c1.83,1.4,3.67,2.78,5.51,4.18-.14.16-.25.45-.41.47-1.49.18-3,.39-4.48.44a35.76,35.76,0,0,1-6.45-.38c-1.52-.23-3-.37-4.59-.48A43.83,43.83,0,0,1,88.13,86c-2.37-.63-4.73-1.28-7.1-1.94a69.14,69.14,0,0,1-10.18-4A76.36,76.36,0,0,1,50.78,66.85a60.07,60.07,0,0,1-9.9-11.57,90.86,90.86,0,0,1-4.52-8.21,30.53,30.53,0,0,1-2-4.78c-.66-2.1-1.16-4.26-1.64-6.41-.38-1.69-.63-3.4-.93-5.1-.08-.48-.13-1-.17-1.24l.71-1,1.12-.3,2.76-.72,1-.44.46,0,1-.45c.37-.1.75-.22,1.12-.31l2.76-.72,1-.44.46,0,1-.45,1.12-.32L49,23.64l1-.44.46,0,1-.45.46,0c1.08.1,1.34.3,1.37,1.39a34.63,34.63,0,0,0,1,7.08,57.49,57.49,0,0,0,2.42,7.68,43.77,43.77,0,0,0,8.33,13.25c1.36,1.51,3,2.78,4.45,4.2a44.51,44.51,0,0,0,8.62,5.91A22.93,22.93,0,0,0,80.9,63.39Z"/><path d="M51,85.44c-1.63,3-3.27,6-4.88,9-1.52,2.84-3,5.7-4.53,8.54,0,.07-.22.06-.33.09a6.72,6.72,0,0,0-.63-.67,56.4,56.4,0,0,1-4.41-3.73,85.41,85.41,0,0,1-6.36-7.23,82.14,82.14,0,0,1-5.78-8.55A86.09,86.09,0,0,1,19.77,74a47,47,0,0,1-2.05-6c-.49-1.7-.77-3.45-1.13-5.19a23.14,23.14,0,0,1-.78-4.15c0-2.75-.55-5.49-.21-8.25.26-2.13.09-4.28.5-6.43.45-2.33.85-4.67,1.51-7a56.15,56.15,0,0,1,3.92-10.19,26.61,26.61,0,0,0,1.06-2.65h0a1.43,1.43,0,0,0,.94-1.51h0l.52-.95.45-.53.53-.94a114.15,114.15,0,0,1,7.05-9.59c.68-.81.92-.83,1.95-.45,1.23.46,2.49.81,3.74,1.2s2.27.67,3.41,1l1,.45.46,0,1,.45.46,0,1,.45.46,0,1,.45.46,0c.34.15.68.29,1,.45l.46,0,1,.45.92,0a12,12,0,0,1-.11,1.9c-.22,1-.56,2-.85,2.95l-.44.05-1,.44-1,.26-2.86.76-1,.44-2.4.54-1,.44-2.4.54-1,.44-.46.05-1,.44-2.4.54-1,.44-1.91.57a3.86,3.86,0,0,0-.46,1.26c.12,2.92.3,5.84.47,8.77a1,1,0,0,0,0,.24c.46,2.12.86,4.26,1.38,6.36a50.08,50.08,0,0,0,1.67,5.77c1,2.5,2.1,4.94,3.23,7.37a56.21,56.21,0,0,0,8.62,12.79,65.78,65.78,0,0,0,9.31,8.81,1.55,1.55,0,0,1,.72,1.52q-1.22,2.19-2.42,4.38c-.18.33-.35.67-.53,1A11.38,11.38,0,0,0,51,85.44Z"/><path class="cls-1" d="M59.35,37.75c-.08.86.3,1.15,1.13,1.13,1.34,0,2.69,0,4,0,1.15,0,1.21-.11,1.21-1.29,0-1.54,0-3.09,0-4.64a3.4,3.4,0,0,1,.39,1c.06,1.43,0,2.86.1,4.28a2.08,2.08,0,0,0,.62,1.34c1.47,1.29,3,2.48,4.53,3.73a46.14,46.14,0,0,0,9,5.81q4.19,2.07,8.53,3.83a41.59,41.59,0,0,0,5.17,1.55c1,.28,2.14.44,3.21.62a43.09,43.09,0,0,0,5.26.79,27.9,27.9,0,0,0,7.29-.33,17.8,17.8,0,0,0,5.76-2,5.86,5.86,0,0,0,3.11-5.36c0-.81-.07-1.63-.1-2.45a1.67,1.67,0,0,1,.47.34c.49.75.92,1.52,1.41,2.26a6.93,6.93,0,0,1,1.08,5.36,6.84,6.84,0,0,1-2.72,4.19,16.7,16.7,0,0,1-5.4,2.37,16.33,16.33,0,0,1-4,.59c-2.36.09-4.74.11-7.1,0a37,37,0,0,1-4.51-.78c-1-.19-2-.35-3-.61-2.76-.74-5.51-1.52-8.25-2.29-.62-.18-1.26-.62-1.83-.54-.89.12-.43,1.08-.61,1.64a8.74,8.74,0,0,1-2.79,4.32,3,3,0,0,0-.53.79,23.22,23.22,0,0,1-2.74-1.21,44.51,44.51,0,0,1-8.62-5.91c-1.47-1.41-3.09-2.69-4.45-4.2a43.77,43.77,0,0,1-8.33-13.25,58.5,58.5,0,0,1-2.42-7.68,34.63,34.63,0,0,1-1-7.08c0-1.09-.28-1.29-1.37-1.39.32-.47.45-.88-.06-1.35a16.3,16.3,0,0,1-1.3-1.5l-1.09.41c.29-1,.63-2,.85-2.95a11.91,11.91,0,0,0,.11-1.9l1-2-1-1c1.11-.07,1.24-.25,1.48-1.3.28-1.23.68-2.44,1-3.65l.91,1.23a5.94,5.94,0,0,0,3.4,2.18,26.75,26.75,0,0,0,4.71.95,14.89,14.89,0,0,0,4.55-.49c1.7-.43,3.47-.92,4.69-2.34a18.5,18.5,0,0,0,1.18-1.76c.22.82.4,1.62.64,2.41a4,4,0,0,0,.47.78c0,1.76.11,1.92,1.49,2l-1,.91c.33.64.71,1.34,1.07,2,.2,1.24.35,2.48.63,3.7.06.28.53.48.81.71-.17.78-.79.51-1.14.34a1,1,0,0,0-1.34.35c-.43.47-.87.92-1.3,1.37.13.3.25.55.35.79-.54.22-.2.47,0,.72a40.3,40.3,0,0,1,5.08,8.54c.7,1.73,1.21,3.53,1.82,5.29a3.1,3.1,0,0,0,.43.68c.23,1.13.46,2.26.7,3.39.1.5.22,1,.32,1.51-.52-.27-1.07-.5-1.56-.82a26.71,26.71,0,0,1-7.23-6.58c-1.56-2.12-3.05-4.29-4.53-6.47-.82-1.21-1.56-2.46-2.33-3.7-.25-.17-.5-.47-.76-.48-1.47-.05-2.93,0-4.4,0-.68,0-.76.48-.76,1"/><path class="cls-1" d="M54.44,79.08a1.53,1.53,0,0,0-.72-1.52,65.78,65.78,0,0,1-9.31-8.81A55.36,55.36,0,0,1,35.79,56c-1.13-2.43-2.27-4.86-3.23-7.37a49,49,0,0,1-1.67-5.77c-.52-2.11-.93-4.24-1.38-6.36a2,2,0,0,1,0-.24c-.17-2.92-.35-5.84-.47-8.77a3.57,3.57,0,0,1,.46-1.26,8.68,8.68,0,0,1,1.17,1.5,1.58,1.58,0,0,0,1.76.91l-.71,1c0,.27.09.76.17,1.24.3,1.7.55,3.42.93,5.1.49,2.15,1,4.31,1.64,6.41a30.53,30.53,0,0,0,2,4.78A90.86,90.86,0,0,0,40.9,55.3a59.38,59.38,0,0,0,9.9,11.57A76.36,76.36,0,0,0,70.87,80.12a70.27,70.27,0,0,0,10.18,3.95c2.36.65,4.73,1.31,7.1,1.94a43.83,43.83,0,0,0,8.2,1.49c1.53.1,3.07.25,4.59.48a34.82,34.82,0,0,0,6.45.38c1.5,0,3-.26,4.48-.44.15,0,.27-.31.41-.47.79.26.58.69.12,1-1.91,1.5-3.84,3-5.76,4.44l-.1.07c-1.9,2.09-4.22,1.26-6.47.94-.2,0-.4-.1-.6-.11-2.22-.18-4.45-.29-6.66-.55-1.43-.17-2.84-.53-4.27-.82-1-.19-1.89-.43-2.84-.57A65.29,65.29,0,0,1,75.24,89,86.91,86.91,0,0,1,61.65,82.9a61.42,61.42,0,0,1-5.16-3.42C55.85,79,55.26,78.43,54.44,79.08Z"/><path class="cls-2" d="M118,44.86c.18.29.39.61.59.94,0,.81.07,1.63.1,2.45a5.84,5.84,0,0,1-3.11,5.36,17.35,17.35,0,0,1-5.76,2,27.9,27.9,0,0,1-7.29.33,45.13,45.13,0,0,1-5.26-.79c-1.07-.18-2.16-.34-3.21-.62A43.37,43.37,0,0,1,88.89,53q-4.33-1.77-8.53-3.83a45.38,45.38,0,0,1-9-5.81c-1.51-1.26-4.53-3.73-4.53-3.73l-1.28-1V35.66L65.76,33V25.21c.77,1.24,1.51,2.5,2.33,3.7,1.48,2.18,3,4.35,4.53,6.47A26.7,26.7,0,0,0,79.85,42c.5.31,1,.55,1.56.82a65.85,65.85,0,0,0,6.31,2.54l2.5.9,1.48.34.73.13H93.7s10.43.26,15.62-.48"/><path class="cls-1" d="M22.58,24.17c-.35.88-.63,1.8-1.06,2.65A56.15,56.15,0,0,0,17.6,37c-.66,2.29-1.06,4.62-1.51,7-.41,2.15-.24,4.3-.5,6.43-.34,2.77.18,5.5.21,8.25a23.14,23.14,0,0,0,.78,4.15c.36,1.73.64,3.49,1.13,5.19a48.63,48.63,0,0,0,2.05,6,86.09,86.09,0,0,0,4.31,8.85,81.09,81.09,0,0,0,5.78,8.55,87.22,87.22,0,0,0,6.36,7.23,54.61,54.61,0,0,0,4.41,3.73,7.94,7.94,0,0,1,.63.67c-.66-.16-1.33-.29-2-.48-2.08-.6-4.16-1.23-6.24-1.84a10.35,10.35,0,0,0-1.86-.47c-1.73-.18-2.47-1.6-3.45-2.69a31,31,0,0,1-2.14-2.93c-1.42-2.06-2.92-4.08-4.19-6.23a76.69,76.69,0,0,1-3.84-7.29,60.9,60.9,0,0,1-2.35-6.34q-1-3.15-1.84-6.36a27.12,27.12,0,0,1-.58-3.7c-.14-1.29-.1-1.29-1.42-1.32-.2,0-.4,0-.61-.06l1.89-.74a34.88,34.88,0,0,1-.32-3.84c.08-3,.29-6.06.46-9.1.64-.38.41-1,.4-1.54.17-1,.3-2.07.52-3.09a42.22,42.22,0,0,1,1.15-4.91c1-2.78,2.13-5.5,3.19-8.25.14-.37.31-.83-.39-.86.06-.15.07-.35.18-.44,1.87-1.44,2.47-3.75,3.79-5.55A9.86,9.86,0,0,1,22.58,24.17Z"/><path d="M12.79,49.68c-.16,3-.37,6.06-.46,9.1a34.88,34.88,0,0,0,.32,3.84l-1.89.74-5.82.57c-.54,0-1.18-.33-1.55.39H.05V62.43c.61-.37.49-1,.43-1.52L.54,60c.14-.34.28-.69.43-1a32.16,32.16,0,0,1,1.1-3.78c1-2.34,2.14-4.63,3.3-6.91a74.58,74.58,0,0,1,7.08-10.85c1.66-2.19,3.47-4.26,5.21-6.37.7,0,.53.49.39.86-1.06,2.75-2.23,5.47-3.19,8.25a38.5,38.5,0,0,0-1.15,4.91c-.22,1-.35,2.06-.52,3.09C12.52,48.51,12.8,49.13,12.79,49.68Z"/><path class="cls-3" d="M191.28,44.29h2.45V57.7c1.19-.84,2.11-1.57,3.1-2.18s2.42-.51,3.68-.46l1,.43a6.72,6.72,0,0,1,3.81,3.3,14.72,14.72,0,0,1,1.1,3.07c0,.7-.34,1.48.42,2v1.9c-.76.54-.39,1.32-.42,2a8.93,8.93,0,0,1-4.32,6.27,1.82,1.82,0,0,1-.59.12c-.35.17-.69.32-1,.46a6.06,6.06,0,0,1-5.88-2.42l-.7-.84-.29.14v2.62h-2.36m12.63-7.36c0-.65,0-1.3.05-2a7.63,7.63,0,0,0-1.47-4.94,4.3,4.3,0,0,0-5.35-1.49,6,6,0,0,0-2.5,2.54c-.16.33-.31.67-.47,1a26.24,26.24,0,0,0-.41,3.28,13.3,13.3,0,0,0,.42,2.55c.15.34.3.67.46,1a5.31,5.31,0,0,0,2.46,2.45c1,.92,2.17.48,3.29.33.07,0,.11-.2.17-.31a4.75,4.75,0,0,0,2.93-3.44Z"/><path d="M80.39,37.86a3.52,3.52,0,0,1-.43-.68c-.61-1.76-1.12-3.57-1.82-5.29a41,41,0,0,0-5.08-8.54c-.18-.24-.52-.49,0-.72l3,.84c.31.09.62.14.94.21l1,.44,2.41.54,1,.45.46,0,1,.44,2.4.55,1,.44.46,0,1,.44,2.4.55,1,.44.46.05,1,.44.9.07c0,.08,0,.21.07.23,1.49.57,3,1.13,4.46,1.71.78.3,1.73.21,2.34.93l-5.31.57-1,.41-.93.06-1,.43-2.41.54-1,.45-.45,0-1,.45A23.41,23.41,0,0,0,80.39,37.86Z"/><path class="cls-3" d="M237.32,67.78V61.94l.43-1c0-.15,0-.3.05-.46.16-.33.31-.67.47-1,1.55-3.36,4.2-4.75,7.83-4.38l1,.45A6,6,0,0,1,250.54,59c.16.33.31.67.47,1,0,.15,0,.3.05.45.14.34.28.69.43,1v4.41H240.25c-.69.38-.7.7,0,1.47,0,.15,0,.3,0,.46.16.33.31.67.47,1,.62,1,1.18,2.08,2.44,2.46a3,3,0,0,0,3.45,0A5.3,5.3,0,0,0,249.33,69a13.17,13.17,0,0,1,1.56,1.37,1,1,0,0,1,.05,1c-1,1.3-2,2.58-3.8,2.87l-1,.42a7.16,7.16,0,0,1-5.52-1.41,16.73,16.73,0,0,1-3.05-4.47A1.8,1.8,0,0,1,237.32,67.78Zm2.94-6.34c0,.47,0,.94-.08,1.4h8.73c-.13-.67-.22-1.23-.35-1.76A4.24,4.24,0,0,0,245,58a4.4,4.4,0,0,0-4.24,2.47C240.57,60.77,240.41,61.11,240.26,61.44Z"/><path class="cls-3" d="M150.59,74.11h-3V49.23h-7.3v-3h17.52v2.9H150.6C150.59,57.5,150.59,65.76,150.59,74.11Z"/><path class="cls-3" d="M232.45,74.11h-2.51V72.85c0-3.71,0-7.43,0-11.14a4.12,4.12,0,0,0-1.34-3.1,3.25,3.25,0,0,0-4.09.09,6,6,0,0,0-1.94,3.56c-.66,3.44-.28,6.89-.39,10.33,0,.48,0,1,0,1.51h-2.46V55.58h2.34c0,.76.08,1.48.11,2.19a6.72,6.72,0,0,1,3.21-2.47,5,5,0,0,1,6.06,2.17,8,8,0,0,1,1,4C232.43,65.66,232.45,69.81,232.45,74.11Z"/><path class="cls-3" d="M164.71,74.2a4.87,4.87,0,0,1-3-3.4,13.58,13.58,0,0,1-.46-4.56c0-3.14,0-6.28,0-9.41V55.58h2.5V57c0,3.51-.07,7,0,10.51a7.1,7.1,0,0,0,.93,3c.73,1.33,2.4,1.57,3.89.86a3.85,3.85,0,0,0,2-2.07c.15-.34.3-.67.46-1,.9-3.69.34-7.44.49-11.16,0-.48,0-1,0-1.52H174V74.11h-1.91V71.48l-.36-.11-.63.83a4.88,4.88,0,0,1-4.05,2.43c-.44,0-.89,0-1.34,0S165.05,74.34,164.71,74.2Z"/><path class="cls-4" d="M53,7.48c-.35,1.22-.75,2.42-1,3.65-.24,1-.37,1.23-1.48,1.3l-.46,0-1-.45-2.85-.78-1-.25-1-.44-.46,0c-.34-.15-.68-.29-1-.45l-1.5-.49c0-.1,0-.21,0-.31A59.13,59.13,0,0,1,60.29.06c0,.51.05.83.06,1.15s0,.8,0,1.3l-1,.11c-.55,0-1.15-.18-1.5.46C55.53,3.76,53.48,4.76,53,7.48Z"/><path class="cls-3" d="M181.86,57c0,.27.11.53.18.86,1.61-2.37,3.26-3.15,5.73-2.69,0,.94,0,1.91,0,2.87,0,.13-.29.25-.44.38a1.25,1.25,0,0,0-2,0c-1.47.26-2.59,1.79-2.93,3.47-.71,3.51-.27,7-.4,10.55,0,.52,0,1,0,1.64h-2.46V55.56h1.89C181.53,56.05,181.1,56.73,181.86,57Z"/><path class="cls-3" d="M214.19,74.11H211.8V55.58h2.39Z"/><path class="cls-5" d="M95.11,26.15l-.46,0-1-.45-.46,0-1-.45-2.84-.77-1-.26-1-.44L85,23.05c0-.07,0-.14,0-.21a1.73,1.73,0,0,1,.52-.13c2,0,4,0,6,.06a29.84,29.84,0,0,1,3.09.44c.38.63,1,.47,1.53.42l1.4.07c.37.6.94.5,1.51.45l.46,0,1,.44.46,0,1,.45,2.89,1.51c0,1.36,0,1.51-1.27,1.39-1.43-.14-2.83-.5-4.24-.76l-3.28-.65h0Z"/><path class="cls-4" d="M67.71,7.52c-.69,1.36-2,1.71-3.33,1.9a13.9,13.9,0,0,1-3.41,0A4.36,4.36,0,0,1,57.87,8c0-.66,0-1.31,0-2,.65-.46,1.25-1.17,2-1.34,2.63-.62,5.25-.63,7.62,1,.11.08.16.26.24.39Z"/><path class="cls-6" d="M96.11,26.61l3.28.65c1.41.27,2.81.63,4.24.76,1.27.12,1.32,0,1.27-1.39.63,1.09,1.34,2.15,1.87,3.29.29.62-.61,1.57-1.41,1.58-1.63,0-3.26,0-4.88,0-.62-.73-1.56-.63-2.34-.93-1.49-.58-3-1.13-4.46-1.71-.05,0-.05-.15-.07-.23C94.9,28.53,95.45,27.5,96.11,26.61Z"/><path class="cls-3" d="M141.2,35.43c1.26-2.37,3.31-2.88,6.36-1.48v-5.3H149V41l-1.93-.46a3.85,3.85,0,0,1-5.87-1.6c0-.54.19-1.15-.46-1.5v-.46C141.38,36.58,141.19,36,141.2,35.43Zm6.38,1.74a2.48,2.48,0,0,0-2.64-2.71,2.7,2.7,0,0,0-2.73,2.68,2.67,2.67,0,0,0,2.69,2.71A2.47,2.47,0,0,0,147.58,37.17Z"/><path class="cls-5" d="M76.51,19.79c-.28-.24-.75-.43-.81-.71-.27-1.22-.43-2.47-.63-3.7l.91-.07,1-.44.46,0,1-.44,2.75-.73,1.13-.31c.34-.15.68-.29,1-.45l.46,0,1-.45,2.85-.78c.34-.09.69-.16,1-.24l.47.46c-1.87,1-3.79,1.9-5.59,3-2.19,1.35-4.27,2.87-6.39,4.32C77,19.37,76.76,19.59,76.51,19.79Z"/><path class="cls-3" d="M158.68,37.4h-6.05a2.48,2.48,0,0,0,3.86,2c.63-.48,1.27-1,1.79.14-.73,1.54-3.37,2-5.15,1.2a4.55,4.55,0,0,1-2-4.56,4.17,4.17,0,0,1,4.26-3.15C157.5,33.36,158.69,34.87,158.68,37.4Zm-6.05-1c1.39,0,2.75,0,4.11,0,.63,0,.64-.38.28-.91a2.35,2.35,0,0,0-2.51-1A2.08,2.08,0,0,0,152.63,36.39Z"/><path class="cls-7" d="M75,12.44c-1.38-.08-1.5-.25-1.49-2l.47,0c.54,0,1.18.3,1.54-.41l2.35-.1c.56,0,1.15.21,1.53-.41l4.84-.57.52.52L82.87,10l-1,.44-.46,0-1,.45-2.75.72-1.13.31-1,.44A2.66,2.66,0,0,1,75,12.44Z"/><path class="cls-3" d="M212.9,50.66c-1.23.21-1.79-.81-2-2.19a2,2,0,0,1,1.87-2.29,2.08,2.08,0,0,1,1.94,2.27A2,2,0,0,1,212.9,50.66Z"/><path class="cls-8" d="M23.53,22.68a1.45,1.45,0,0,1-.94,1.51A1.38,1.38,0,0,1,23.53,22.68Z"/><path class="cls-9" d="M57.85,6c0,.66,0,1.31,0,2C57.16,7.22,57.16,6.6,57.85,6Z"/><path class="cls-10" d="M79.46,9.49c-.38.62-1,.47-1.53.41C78.27,9.17,78.93,9.55,79.46,9.49Z"/><path class="cls-11" d="M.47,60.9c.05.56.18,1.15-.43,1.52C.05,61.87-.2,61.26.47,60.9Z"/><path class="cls-12" d="M75.57,10c-.36.71-1,.37-1.54.41C74.4,9.76,75,10,75.57,10Z"/><path class="cls-13" d="M57.85,3.07c.35-.63.95-.48,1.5-.46Z"/><path class="cls-14" d="M67.71,7.52c0-.5,0-1,0-1.5C68.24,6.51,68.56,7,67.71,7.52Z"/><path class="cls-13" d="M86.31,26.59l-1-.44Z"/><path class="cls-6" d="M95.11,26.15l1,.46Z"/><path class="cls-15" d="M87.8,27.08l-1-.44Z"/><path class="cls-13" d="M93.63,25.66l1,.45C94.32,26,94,25.81,93.63,25.66Z"/><path class="cls-16" d="M91.22,28.06l-1-.44Z"/><path class="cls-8" d="M24.05,21.72l-.52,1Z"/><path class="cls-17" d="M48.09,14.82c-.34-.15-.68-.29-1-.45Q47.57,14.61,48.09,14.82Z"/><path class="cls-15" d="M46.61,14.33l-1-.45Z"/><path class="cls-18" d="M94.12,32.46l1-.41Z"/><path class="cls-19" d="M92.15,33l1-.43Z"/><path class="cls-20" d="M88.73,34l1-.45Z"/><path class="cls-21" d="M87.26,34.43l1-.45Z"/><path class="cls-22" d="M45.13,13.85l-1-.45Z"/><path class="cls-23" d="M83.38,12.91l-1,.45Z"/><path class="cls-24" d="M92.16,25.16l1,.45Z"/><path class="cls-23" d="M82.9,25.6l-1-.44C82.21,25.31,82.55,25.46,82.9,25.6Z"/><path class="cls-25" d="M43.66,13.36l-1-.45Z"/><path class="cls-26" d="M84.85,12.42l-1,.45Z"/><path class="cls-17" d="M102,25.12l-1-.45Z"/><path class="cls-27" d="M42.19,12.87l-1-.45Z"/><path class="cls-28" d="M75.5,12.38l1-.44Z"/><path class="cls-26" d="M81.41,25.12l-1-.45Z"/><path class="cls-17" d="M49,11.93l1,.45Z"/><path class="cls-29" d="M78.48,14.39l-1,.44Z"/><path class="cls-13" d="M80.4,10.91l1-.45Z"/><path class="cls-29" d="M44.12,10.46l1,.44Z"/><path class="cls-23" d="M81.87,10.41l1-.44Z"/><path class="cls-25" d="M100.54,24.63l-1-.44Z"/><path class="cls-28" d="M42.65,10l1,.45Z"/><path class="cls-21" d="M49.55,15.32l-1-.45Z"/><path class="cls-30" d="M1,58.94c-.14.34-.28.69-.43,1Z"/><path class="cls-31" d="M87.27,23.69l1,.44Z"/><path class="cls-18" d="M78,24.13l-1-.44C77.31,23.84,77.65,24,78,24.13Z"/><path class="cls-24" d="M77,14.87l-1,.44Z"/><path class="cls-28" d="M25,20.25l-.53.94Z"/><path class="cls-32" d="M51,85.44c.17-.32.33-.65.5-1Z"/><path class="cls-33" d="M92.7,28.55l-1-.44Z"/><path class="cls-34" d="M37.75,27.09l1-.45Z"/><path class="cls-23" d="M36.27,27.57l1-.44Z"/><path class="cls-17" d="M42.64,25.61l1-.44Z"/><path class="cls-22" d="M44.12,25.12l1-.45Z"/><path class="cls-28" d="M49,23.65l1-.44Z"/><path class="cls-35" d="M50.5,23.16l1-.45Z"/><path class="cls-28" d="M32.39,25.17l-1,.44Z"/><path class="cls-34" d="M35.82,24.19l-1,.44Z"/><path class="cls-30" d="M37.31,23.7l-1,.44Z"/><path class="cls-19" d="M49.07,20.27l-1,.44C48.38,20.56,48.72,20.41,49.07,20.27Z"/><path class="cls-36" d="M40.73,22.72l-1,.44Z"/><path class="cls-29" d="M44.15,21.73l-1,.44Z"/><path class="cls-37" d="M12.79,49.68c0-.54-.27-1.17.4-1.54C13.21,48.69,13.43,49.3,12.79,49.68Z"/><path class="cls-38" d="M29.48,26.3a.15.15,0,0,1,.07-.24l11.13-3.59,9.81-2.91a.14.14,0,0,1,.16.05l1.74,2.09-.44.93-8.83,2.74L32.94,29h-.06c-.25,0-1.85-.13-2.24-1.23Z"/><rect class="cls-38" x="59.28" y="24.59" width="6.61" height="14.29" rx="0.68"/><path class="cls-38" d="M83.86,12.44h.62a1.44,1.44,0,0,1,1.44,1.44V36.45a0,0,0,0,1,0,0H82.69a0,0,0,0,1,0,0V13.6a1.17,1.17,0,0,1,1.17-1.17Z" transform="translate(36.65 98.16) rotate(-73.29)"/><path class="cls-38" d="M80.86,4.55h1.82a.26.26,0,0,1,.26.26V18.57a.78.78,0,0,1-.78.78h-1.3A1.35,1.35,0,0,1,79.51,18V5.9a1.35,1.35,0,0,1,1.35-1.35Z" transform="translate(68.56 -69.16) rotate(72.75)"/><path class="cls-38" d="M41,1.73h2.6a.42.42,0,0,1,.42.42V20.41a.42.42,0,0,1-.42.42h-1.8a1.21,1.21,0,0,1-1.21-1.21V2.15A.42.42,0,0,1,41,1.73Z" transform="translate(65.54 -25.74) rotate(107.23)"/><rect class="cls-38" x="60.29" y="0.02" width="3.43" height="2.5" transform="translate(124.01 1.77) rotate(179.28)"/><ellipse class="cls-39" cx="62.78" cy="6.98" rx="9.84" ry="5"/><ellipse class="cls-4" cx="62.78" cy="6.77" rx="5.72" ry="2.91"/></svg>